<?xml version="1.0" encoding="UTF-8" standalone="no"?>
<svg
   xmlns:dc="http://purl.org/dc/elements/1.1/"
   xmlns:cc="http://creativecommons.org/ns#"
   xmlns:rdf="http://www.w3.org/1999/02/22-rdf-syntax-ns#"
   xmlns:svg="http://www.w3.org/2000/svg"
   xmlns="http://www.w3.org/2000/svg"
   viewBox="0 0 990.82666 348.60001"
   height="348.60001"
   width="990.82666"
   xml:space="preserve"
   id="svg2"
   version="1.1"><metadata
     id="metadata8"><rdf:RDF><cc:Work
         rdf:about=""><dc:format>image/svg+xml</dc:format><dc:type
           rdf:resource="http://purl.org/dc/dcmitype/StillImage" /></cc:Work></rdf:RDF></metadata><defs
     id="defs6" /><g
     transform="matrix(1.3333333,0,0,-1.3333333,0,348.6)"
     id="g10"><g
       transform="scale(0.1)"
       id="g12"><path
         id="path14"
         style="fill:#ffffff;fill-opacity:1;fill-rule:nonzero;stroke:none"
         d="M 2499.28,1307.06 C 2499.28,647 1964.18,111.898 1304.11,111.898 644.059,111.898 108.965,647 108.965,1307.06 c 0,660.06 535.094,1195.14 1195.145,1195.14 660.07,0 1195.17,-535.08 1195.17,-1195.14" /><path
         id="path16"
         style="fill:#89cf25;fill-opacity:1;fill-rule:nonzero;stroke:none"
         d="m 1307.45,140.898 c -643.223,0 -1166.524,523.293 -1166.524,1166.482 0,643.09 523.301,1166.39 1166.524,1166.39 642.93,0 1166.36,-523.3 1166.36,-1166.39 0,-643.189 -523.43,-1166.482 -1166.36,-1166.482 z m 0,2473.612 C 585.363,2614.51 0,2029.32 0,1307.38 0,585.301 585.363,0 1307.45,0 c 721.83,0 1307.29,585.301 1307.29,1307.38 0,721.94 -585.46,1307.13 -1307.29,1307.13" /><path
         id="path18"
         style="fill:#89cf25;fill-opacity:1;fill-rule:nonzero;stroke:none"
         d="m 1492.83,648.238 -334.42,-0.07 v 844.922 c 121.88,-39.8 236.17,-94.42 295.57,-167.8 V 925.879 l 38.93,0.121 c 200.29,1 363,164.7 363,364.96 0,200.22 -162.71,363.72 -363,364.7 l -38.93,0.18 v -0.2 -75.21 c -84.81,21.89 -188.39,38.11 -295.57,50.05 v 25.16 110.61 166.58 h 332.68 l 20.54,0.45 c 344.84,-10.75 622.09,-294.89 622.09,-642.32 0,-353.722 -287.46,-641.948 -640.89,-642.722 z M 1003.81,1730.42 c 0,-0.22 0,-0.26 0,-0.45 v -84.88 c -100.216,7.74 -196.685,12.52 -276.81,15.28 v 69.6 201.53 h 276.81 z m 0,-608.71 V 645.719 H 879.789 c -4.75,0.633 -9.473,0.902 -14.371,0.902 C 788.926,646.621 727,708.781 727,785.16 v 177.32 622.37 c 39.199,-4.63 150.531,-19.37 276.81,-48.94 z m 303.64,1254.65 c -589.72,0 -1069.259,-479.55 -1069.259,-1068.98 0,-589.7 479.539,-1069.079 1069.259,-1069.079 589.27,0 1069.02,479.379 1069.02,1069.079 0,589.43 -479.75,1068.98 -1069.02,1068.98" /><path
         id="path20"
         style="fill:#3a3a3b;fill-opacity:1;fill-rule:nonzero;stroke:none"
         d="m 3218.9,1456.61 h 126.37 V 791.051 H 3218.9 Z m -29.54,238.72 c 0,25.26 9.11,47.03 27.37,65.31 18.28,18.26 40.03,27.32 65.37,27.32 25.28,0 46.99,-9.06 65.24,-27.32 18.2,-18.28 27.31,-40.05 27.31,-65.31 0,-25.29 -9.11,-47 -27.31,-65.33 -18.25,-18.18 -39.96,-27.4 -65.24,-27.4 -25.34,0 -47.09,9.22 -65.37,27.4 -18.26,18.33 -27.37,40.04 -27.37,65.33" /><path
         id="path22"
         style="fill:#3a3a3b;fill-opacity:1;fill-rule:nonzero;stroke:none"
         d="m 3690.64,917.449 h 169.91 c 57.13,0 111.1,7.84 162.15,23.242 50.99,15.399 95.65,38.539 134.16,69.379 38.25,30.99 68.63,69.59 91.03,115.9 22.57,46.25 33.84,100.36 33.84,162.16 0,31.85 -5.22,69.05 -15.51,111.61 -10.29,42.59 -29.73,83.06 -58.18,121.47 -28.63,38.38 -68.15,70.92 -118.74,97.63 -50.53,26.74 -116.09,40.02 -196.56,40.02 h -202.1 z M 3555.88,1785.1 h 346.65 c 70.37,0 131.83,-7.87 184.75,-23.72 52.83,-15.96 98.69,-37.38 137.65,-63.93 38.75,-26.72 71.02,-57.44 96.68,-91.96 25.77,-34.67 46.07,-70.21 61.15,-106.79 15,-36.39 25.66,-72.96 32.29,-109.43 6.6,-36.47 9.71,-70.31 9.71,-101.14 0,-63.59 -11.56,-125.2 -35.03,-184.65 -23.31,-59.52 -57.97,-112.421 -103.83,-158.761 -45.96,-46.289 -102.61,-83.348 -170.57,-111.508 -67.73,-28.133 -146.14,-42.16 -235.12,-42.16 H 3555.88 V 1785.1" /><path
         id="path24"
         style="fill:#3a3a3b;fill-opacity:1;fill-rule:nonzero;stroke:none"
         d="m 4974.22,1658.86 h -320.37 v 126.24 h 775.12 V 1658.86 H 5108.9 V 791.051 h -134.68 v 867.809" /><path
         id="path26"
         style="fill:#3a3a3b;fill-opacity:1;fill-rule:nonzero;stroke:none"
         d="m 5878.38,1178.59 c -1.12,28.12 -5.51,53.88 -13.38,77.19 -7.87,23.54 -20.01,43.88 -35.93,61.17 -15.87,17.33 -35.66,30.79 -59.57,40.83 -24.01,9.69 -51.78,14.62 -83.63,14.62 -30.93,0 -59.31,-5.89 -84.94,-17.5 -25.62,-11.81 -47.38,-26.95 -65.25,-45.78 -17.76,-18.52 -31.57,-39.39 -41.48,-62.42 -9.84,-22.87 -14.62,-45.56 -14.62,-68.11 z m -398.8,-101.06 c 0,-28.98 6.27,-55.46 19.02,-79.319 12.41,-23.973 29.15,-44.359 49.74,-61.121 20.42,-16.852 44.52,-29.988 71.61,-39.238 27.2,-9.293 55.23,-14.114 84.11,-14.114 39.46,0 73.56,9.231 102.73,27.364 28.89,18.296 55.46,42.41 79.92,72.367 l 95.55,-72.989 c -70.18,-90.832 -168.55,-136.281 -294.96,-136.281 -52.51,0 -99.93,8.992 -142.55,26.621 -42.55,17.871 -78.58,42.481 -108.16,73.801 -29.44,31.41 -52.06,68.32 -68.07,110.957 -15.84,42.592 -23.81,88.512 -23.81,138.292 0,49.58 8.68,95.74 26.01,138.33 17.33,42.59 41.05,79.55 71.42,110.91 30.59,31.31 66.82,55.94 108.9,73.72 42.25,17.84 88.21,26.69 137.65,26.69 59.12,0 108.96,-10.36 149.67,-30.83 40.64,-20.61 74.12,-47.53 100.21,-80.76 26.33,-33.32 45.1,-70.73 56.92,-112.34 11.68,-41.72 17.55,-84.1 17.55,-127.2 v -44.86 h -533.46" /><path
         id="path28"
         style="fill:#3a3a3b;fill-opacity:1;fill-rule:nonzero;stroke:none"
         d="m 6640.63,1279.74 c -23.38,24.31 -48.13,42.84 -73.7,55.46 -25.77,12.54 -56.36,18.91 -92.07,18.91 -34.39,0 -64.79,-6.37 -90.5,-18.91 -25.71,-12.62 -47.2,-29.88 -64.48,-51.94 -17.3,-22.05 -30.56,-47.31 -39.3,-75.88 -9.03,-28.47 -13.4,-58.19 -13.4,-89.09 0,-31.01 5.08,-60.15 15.44,-87.96 10.21,-27.54 24.81,-51.58 43.63,-72.17 18.45,-20.551 40.98,-36.75 67.21,-48.371 26.13,-11.641 55.82,-17.621 88.5,-17.621 35.65,0 66.02,6.262 91.32,18.934 25.37,12.617 48.68,31.168 70.18,55.476 l 89.75,-89.867 c -32.67,-36.512 -70.8,-62.711 -114.28,-78.582 -43.54,-15.879 -89.58,-23.93 -138.23,-23.93 -51.65,0 -98.73,8.43 -141.19,25.313 -42.66,16.816 -79.37,40.519 -110.37,70.898 -30.73,30.352 -54.67,66.93 -71.45,109.442 -16.77,42.778 -25.22,89.708 -25.22,141.178 0,51.44 8.45,98.82 25.22,141.91 16.78,42.97 40.45,79.97 70.97,110.84 30.35,30.89 66.88,54.92 109.42,72.36 42.64,17.33 90.05,25.93 142.62,25.93 48.65,0 95.12,-8.6 139.56,-25.93 44.48,-17.44 83.08,-43.85 115.92,-79.34 l -95.55,-87.06" /><path
         id="path30"
         style="fill:#3a3a3b;fill-opacity:1;fill-rule:nonzero;stroke:none"
         d="m 6841.47,1852.63 h 126.3 v -498.52 h 2.9 c 15.79,35.58 43.42,64.48 82.74,86.38 39.32,22.03 84.83,33.03 136.27,33.03 31.64,0 62.44,-4.93 91.93,-14.77 29.39,-9.72 55.31,-25.05 77.45,-45.63 21.71,-20.61 39.3,-46.96 52.41,-79.33 12.98,-32.24 19.75,-70.43 19.75,-114.33 V 791.051 h -126.4 v 393.209 c 0,30.77 -4.23,57.31 -12.7,79.42 -8.31,21.84 -19.58,39.67 -33.52,53.27 -14.17,13.53 -30.39,23.28 -48.51,29.48 -18.31,6.11 -37.34,9.03 -57.03,9.03 -26.12,0 -50.48,-4.06 -73.03,-12.55 -22.4,-8.49 -41.98,-21.77 -59.02,-40.02 -16.66,-18.32 -29.76,-41.43 -39.05,-69.54 -9.52,-28.02 -14.19,-61.3 -14.19,-99.52 V 791.051 h -126.3 V 1852.63" /></g></g></svg>